<svg xmlns="http://www.w3.org/2000/svg" width="222" height="41" viewBox="0 0 222 41">
    <g fill="none" fill-rule="evenodd">
        <g fill="#FFF">
            <g>
                <path d="M194.554 9.74v21.743c0 6.784-3.175 9.697-10.144 9.306v-6.262c2.426.13 3.529-.74 3.529-3.044V9.741h6.615zm-96.759-.608c2.867 0 4.984 1.043 6.44 2.826V9.741h6.439v20.655c0 7.305-5.778 10.393-11.644 10.393-4.587 0-8.424-1.696-10.452-5.262l5.645-3.218c.838 1.522 2.117 2.74 5.028 2.74 3.087 0 4.984-1.566 4.984-4.653v-2c-1.456 1.782-3.573 2.826-6.44 2.826-6.262 0-10.85-5.044-10.85-11.045 0-6 4.588-11.045 10.85-11.045zm27.73 0c6.439 0 11.202 4.914 11.202 11.48 0 .913-.088 1.783-.265 2.609h-15.657c.838 2.261 2.867 3.044 5.293 3.044 1.808 0 3.352-.696 4.234-1.653l5.292 3c-2.16 2.958-5.424 4.48-9.614 4.48-7.542 0-12.217-5-12.217-11.48s4.763-11.48 11.732-11.48zm49.989 0c4.278 0 8.071 2.218 9.967 5.566l-5.777 3.305c-.75-1.522-2.338-2.435-4.278-2.435-2.867 0-4.984 2.043-4.984 5.044 0 3 2.117 5.044 4.984 5.044 1.94 0 3.572-.913 4.278-2.435l5.777 3.261c-1.896 3.392-5.645 5.61-9.967 5.61-6.704 0-11.688-5-11.688-11.48s4.984-11.48 11.688-11.48zm32.7 0c2.955 0 5.116 1 6.572 2.652V9.741h6.615v21.742h-6.615v-2.044c-1.456 1.653-3.617 2.653-6.572 2.653-5.778 0-10.54-5-10.54-11.48s4.762-11.48 10.54-11.48zM25.3 6.833v24.849H0V6.833h25.3zm51.118-5.79l10.497 30.44h-7.718L77.652 26.7H66.185l-1.544 4.783h-7.718L67.42 1.043h8.997zm76.352 8.089c4.454 0 8.247 3.13 8.247 9.001v13.35H154.4V19.09c0-2.696-1.72-3.957-3.837-3.957-2.425 0-4.101 1.391-4.101 4.479v11.871h-6.616V9.741h6.616v2.043c1.19-1.609 3.396-2.652 6.307-2.652zm56.768 6.175c-3.043 0-5.248 2.043-5.248 5.305 0 3.261 2.205 5.305 5.248 5.305 3.044 0 5.249-2.044 5.249-5.305 0-3.262-2.205-5.305-5.249-5.305zm-110.639-.174c-3.131 0-5.337 2.044-5.337 5.044 0 3 2.206 5.044 5.337 5.044s5.337-2.044 5.337-5.044c0-3-2.206-5.044-5.337-5.044zm-61.572-.49c3.612.042 4.423 3.937 1.818 6.18l-1.648 1.634h3.339v2.149h-6.762v-1.619l3.338-3.404c.583-.587 1.008-1.159 1.008-1.731-.029-1.536-2.162-1.19-2.527.028l-1.919-1.102c.64-1.451 1.975-2.135 3.353-2.135zm-25.682 0H9.397v9.94h2.247V19.98l3.147 4.601h2.557l-3.455-5.097 3.314-4.842H14.65l-3.006 4.316v-4.316zM71.92 9l-3.617 11.176h7.233L71.92 9.001zm53.561 5.914c-2.514 0-4.19 1.218-4.807 3.436h9.482c-.705-2.523-2.69-3.436-4.675-3.436zM191.247 0c2.16 0 3.969 1.783 3.969 3.914 0 2.13-1.808 3.913-3.97 3.913-2.16 0-3.969-1.783-3.969-3.913 0-2.131 1.808-3.914 3.97-3.914z" transform="translate(-438 -1230) translate(438 1230)"/>
            </g>
        </g>
    </g>
</svg>
