<svg xmlns="http://www.w3.org/2000/svg" width="205" height="81" viewBox="0 0 205 81">
    <g fill="none" fill-rule="evenodd">
        <g fill="#FFF">
            <g>
                <g fill-rule="nonzero">
                    <path d="M9.676 30.491c2.713 0 4.696-.926 6.032-2.457v1.893h6.073V4.03h-6.073v7.648c-1.336-1.53-3.32-2.457-6.032-2.457C4.372 9.22 0 13.853 0 19.856 0 25.858 4.372 30.49 9.676 30.49zM23.366 0h6.073v6.043h-6.073V0zm29.96 0h6.072v6.043h-6.073V0zM10.89 24.77c-2.794 0-4.818-1.893-4.818-4.914 0-3.022 2.024-4.915 4.818-4.915 2.793 0 4.817 1.893 4.817 4.915 0 3.021-2.024 4.915-4.817 4.915zm18.525 5.157V9.784h-6.073v20.143h6.073zm11.642 8.622c5.385 0 10.688-2.86 10.688-9.629V9.784h-5.91v2.055c-1.337-1.652-3.28-2.619-5.912-2.619-5.749 0-9.959 4.673-9.959 10.233 0 5.56 4.21 10.233 9.96 10.233 2.631 0 4.574-.967 5.91-2.619v1.853c0 2.86-1.74 4.311-4.575 4.311-2.672 0-3.846-1.128-4.615-2.538l-5.182 2.981c1.862 3.304 5.385 4.875 9.595 4.875zm-.121-14.423c-2.875 0-4.9-1.893-4.9-4.673 0-2.78 2.025-4.673 4.9-4.673 2.874 0 4.898 1.893 4.898 4.673 0 2.78-2.024 4.673-4.898 4.673zm18.444 5.801V9.784h-6.073v20.143h6.073zm13.423 0v-5.479c-2.672.162-4.17 0-4.17-1.732v-7.13h4.17V9.783h-4.17v-5.64l-6.072 1.813v3.827h-3.24v5.801h3.24v7.131c0 5.64 2.307 8.017 10.242 7.211zm8.809.564c2.712 0 4.696-.926 6.032-2.457v1.893h6.073V9.784h-6.073v1.893c-1.336-1.53-3.32-2.457-6.032-2.457-5.304 0-9.676 4.633-9.676 10.636 0 6.002 4.372 10.635 9.676 10.635zm1.214-5.72c-2.793 0-4.817-1.894-4.817-4.915 0-3.022 2.024-4.915 4.817-4.915 2.794 0 4.818 1.893 4.818 4.915 0 3.021-2.024 4.915-4.818 4.915zm18.525 5.156V2.82H95.28v27.107h6.072zM7.085 70.79v-9.951c1.336 1.53 3.32 2.458 6.032 2.458 5.304 0 9.676-4.633 9.676-10.636 0-6.003-4.372-10.636-9.676-10.636-2.712 0-4.696.927-6.032 2.458v-1.894H1.012v28.2h6.073zm4.818-13.214c-2.794 0-4.818-1.894-4.818-4.915 0-3.022 2.024-4.915 4.818-4.915 2.793 0 4.817 1.893 4.817 4.915 0 3.021-2.024 4.915-4.817 4.915zm17.513 5.157v-9.105c0-3.989 3.562-4.996 6.072-4.593v-6.849c-2.55 0-5.263 1.29-6.072 3.989v-3.586h-6.073v20.144h6.073zm15.124.564c5.951 0 10.728-4.633 10.728-10.636 0-6.003-4.777-10.636-10.728-10.636-5.952 0-10.729 4.633-10.729 10.636 0 6.003 4.777 10.636 10.729 10.636zm0-5.882c-2.632 0-4.656-1.894-4.656-4.754 0-2.86 2.024-4.754 4.656-4.754 2.631 0 4.656 1.893 4.656 4.754 0 2.86-2.025 4.754-4.656 4.754zm19.942 5.882c2.712 0 4.696-.927 6.032-2.458v1.894h6.073v-25.9h-6.073v7.65c-1.336-1.531-3.32-2.458-6.032-2.458-5.304 0-9.676 4.633-9.676 10.636 0 6.003 4.372 10.636 9.676 10.636zm1.214-5.721c-2.793 0-4.817-1.894-4.817-4.915 0-3.022 2.024-4.915 4.817-4.915 2.794 0 4.818 1.893 4.818 4.915 0 3.021-2.024 4.915-4.818 4.915zm19.74 5.72c2.672 0 4.696-.966 5.79-2.457v1.894h6.072V42.589h-6.073v10.998c0 2.86-1.538 4.15-3.765 4.15-1.943 0-3.522-1.168-3.522-3.666V42.589h-6.073v12.368c0 5.439 3.482 8.34 7.57 8.34zm23.14 0c3.968 0 7.409-2.054 9.15-5.196l-5.304-3.022c-.648 1.41-2.146 2.256-3.927 2.256-2.631 0-4.575-1.893-4.575-4.673 0-2.78 1.944-4.673 4.575-4.673 1.781 0 3.239.846 3.927 2.256l5.304-3.062c-1.741-3.102-5.223-5.157-9.15-5.157-6.154 0-10.729 4.633-10.729 10.636 0 6.003 4.575 10.636 10.73 10.636zm20.55-.563v-5.48c-2.673.162-4.17 0-4.17-1.732v-7.13h4.17v-5.802h-4.17v-5.64l-6.073 1.813v3.827h-3.24v5.801h3.24v7.131c0 5.64 2.307 8.017 10.242 7.212zm7.634.564c4.372 0 8.42-1.975 8.42-6.608 0-7.453-9.959-5.922-9.959-8.218 0-.725.648-1.128 1.7-1.128 1.337 0 2.146.725 2.713 1.773l5.182-2.78c-1.7-2.86-4.615-4.311-7.894-4.311-4.21 0-7.935 2.216-7.935 6.607 0 6.97 9.959 5.801 9.959 8.017 0 .806-.729 1.25-2.186 1.25-1.782 0-2.915-.847-3.442-2.378l-5.263 2.981c1.58 3.264 4.656 4.795 8.705 4.795z" transform="translate(-1256 -1210) translate(1256 1210) translate(59.252 5.445)"/>
                </g>
                <path d="M25.317 27.908v25.865H0V27.908h25.317zm12.035 8.129c3.615.043 4.427 4.098 1.82 6.434l-1.65 1.7h3.342v2.236h-6.767v-1.685l3.34-3.543c.584-.61 1.01-1.206 1.01-1.802-.03-1.6-2.165-1.239-2.53.029l-1.92-1.147c.64-1.51 1.976-2.222 3.355-2.222zm-25.7 0H9.403v10.346h2.25v-4.79l3.149 4.79h2.558l-3.457-5.306 3.316-5.04h-2.558l-3.009 4.492v-4.492z" transform="translate(-1256 -1210) translate(1256 1210)"/>
            </g>
        </g>
    </g>
</svg>
