<svg xmlns="http://www.w3.org/2000/svg" width="225" height="48" viewBox="0 0 225 48">
    <g fill="none" fill-rule="evenodd">
        <g fill="#FFF">
            <g>
                <path fill-rule="nonzero" d="M137.288 32.429L224.123 0 224.123 32.429z" opacity=".3" transform="translate(-138 -1227) translate(138 1227)"/>
                <path d="M180.686 3.61l.913.008.437.012.834.038c5.66.34 7.58 2.297 7.58 9.023v5.626h-6.14v-6.125c0-2.713-1.01-3.213-2.662-3.303l-.466-.015h-2.258l-.458.015c-1.629.09-2.68.59-2.68 3.303v4.205c0 2.57.801 3.379 2.62 4.174l.577.24 1.341.52 4.233 1.479.958.373.608.263.284.133.549.28c2.229 1.22 3.722 3.093 3.722 7.418v6.854l-.003.469-.027.89c-.247 5.162-2.016 7.047-6.395 7.562l-.754.073-.804.05c-.277.013-.561.023-.855.029l-.906.009h-1.525l-.913-.01c-.295-.005-.582-.015-.86-.028l-.809-.05-.758-.073c-4.646-.544-6.336-2.613-6.42-8.452l-.003-6.229h6.14v6.125c0 2.836 1.104 3.299 2.89 3.368l.733.011h1.77l.473-.011c1.756-.07 2.905-.532 2.905-3.368v-6.374c0-2.048-.686-2.816-1.884-3.43l-.473-.226-1.685-.722-4.481-1.536-.953-.387-.61-.263-.586-.275c-2.487-1.225-4.239-2.95-4.239-7.427v-5.165c0-6.726 1.964-8.683 7.594-9.023l.829-.038.434-.012.906-.008h1.277zm-37.506 0l.913.008.436.012.834.038c4.85.291 6.94 1.771 7.439 6.423l.068.806c.027.417.044.858.05 1.322l.004.472v5.626h-6.14v-5.99c0-2.714-1.01-3.31-2.65-3.429l-.462-.022-.492-.006-2.15.002-.238.004-.455.022c-1.548.114-2.589.662-2.68 3.071l-.007.357V38.42c0 2.73 1.065 3.314 2.687 3.43l.455.02.481.006h1.907c.169 0 .333-.001.492-.005l.462-.021c1.565-.11 2.557-.648 2.644-3.07l.006-.36v-6.048h6.14v5.76c0 .636-.018 1.23-.054 1.782l-.068.801c-.457 4.243-2.252 5.866-6.283 6.338l-.758.073-.808.05c-.278.013-.565.023-.86.029l-.913.009h-1.907l-.906-.01c-.293-.005-.578-.015-.854-.028l-.804-.05-.754-.073c-4.38-.515-6.149-2.4-6.395-7.561l-.027-.891V12.219l.027-.897c.267-5.628 2.32-7.338 7.545-7.654l.829-.038.433-.012.906-.008h1.907zm-47.822.25l.902.008c.292.006.574.016.847.029l.792.05c4.974.403 6.593 2.312 6.593 8.303v7.296c0 5.126-1.907 6.412-3.814 6.72 2.517.556 3.814 2.227 3.814 7.296v13.44h-6.14V32.659c0-2.726-1.354-3.398-3.127-3.456h-5.34v17.895h-6.12V3.859h11.593zm-25.208 0l1.336.022.82.042.767.066c4.688.496 6.21 2.536 6.21 8.26v11.73c0 6.008-1.603 7.92-6.586 8.322l-.794.05c-.273.014-.556.023-.848.03l-.905.008h-5.148v14.688h-6.14V3.86H70.15zm94.1 0v43.218h-6.12V3.86h6.12zm-37.01 0V9.1h-11.727v13.23h10.792v5.241h-10.792V41.78h11.726v5.242h-17.847V3.859h17.847zm86.682 0V9.1h-11.708v13.23h10.792v5.241h-10.792V41.78h11.708v5.242h-17.848V3.859h17.848zM24.655 13.036v24.749H0v-24.75h24.655zm14.22 8.257c.625.593.978 1.42.977 2.284-.076 1.189-.626 2.297-1.526 3.072l-1.62 1.632h3.28v2.17h-6.617l.038-1.633 3.26-3.417c.536-.43.89-1.047.992-1.728.017-.284-.088-.56-.29-.76-.2-.199-.478-.3-.759-.277-.648.02-1.217.44-1.43 1.056l-1.907-1.095c.545-1.332 1.85-2.187 3.28-2.15.857-.053 1.697.253 2.322.846zm-27.892-.77h-2.23v9.793h2.23v-4.531l3.108 4.53h2.536l-3.413-5.03 3.28-4.761h-2.536l-2.975 4.243v-4.243zm54.02-11.423V27.13l5.122-.001.432-.012.413-.03c1.273-.138 2.193-.686 2.193-2.799V11.942c0-2.304-1.11-2.75-2.578-2.826l-.45-.014-5.133-.001zm30.164 0h-5.281v14.822l5.7-.001.436-.014c1.407-.077 2.33-.522 2.33-2.826v-9.255c0-2.097-.885-2.583-2.133-2.694l-.406-.024-.646-.008z" transform="translate(-138 -1227) translate(138 1227)"/>
            </g>
        </g>
    </g>
</svg>
