<svg xmlns="http://www.w3.org/2000/svg" width="186" height="32" viewBox="0 0 186 32">
    <g fill="none" fill-rule="evenodd">
        <g fill="#FFF">
            <path d="M7.086 31.385V17.143l9.92 14.242h8.06L14.17 15.605 24.623.614h-8.06L7.086 13.978V.615H0v30.77h7.086zm39.48 0v-6.77H36.16l5.137-5.142c2.835-2.814 4.828-5.978 4.828-9.67C46.124 3.603 41.164 0 35.628 0c-4.296 0-8.459 2.154-10.452 6.725l5.979 3.473c.841-1.934 2.391-3.34 4.561-3.34 2.082 0 3.322 1.318 3.322 3.252 0 1.802-1.329 3.604-3.144 5.45L25.486 26.286v5.099h21.08zm16.674 0c5.536 0 10.009-3.56 10.009-9.011 0-3.121-1.506-5.495-3.809-6.945 1.683-1.451 2.701-3.473 2.701-6.022 0-5.32-4.384-8.792-9.787-8.792H50.22v30.77h13.02zm-.886-18.726h-5.048V7.21h5.048c1.639 0 2.702 1.143 2.702 2.725s-1.107 2.725-2.702 2.725zm.886 12.132h-5.934v-5.89h5.934c1.771 0 2.923 1.23 2.923 2.945 0 1.714-1.152 2.945-2.923 2.945zM87.088 32c6.51 0 11.736-5.055 11.736-11.604 0-6.55-5.226-11.605-11.736-11.605-6.51 0-11.736 5.055-11.736 11.605 0 6.55 5.226 11.604 11.736 11.604zm0-6.418c-2.879 0-5.093-2.066-5.093-5.186 0-3.121 2.214-5.187 5.093-5.187 2.878 0 5.093 2.066 5.093 5.187 0 3.12-2.215 5.186-5.093 5.186zm27.48 5.803v-5.978c-2.924.175-4.562 0-4.562-1.89v-7.78h4.561v-6.33h-4.561V3.253l-6.643 1.978v4.176H99.82v6.33h3.543v7.78c0 6.153 2.524 8.747 11.204 7.868zm10.96.615c4.783 0 9.211-2.154 9.211-7.209 0-8.132-10.894-6.461-10.894-8.967 0-.791.709-1.23 1.86-1.23 1.461 0 2.347.79 2.967 1.933l5.669-3.032c-1.86-3.121-5.049-4.704-8.636-4.704-4.606 0-8.68 2.418-8.68 7.209 0 7.604 10.894 6.33 10.894 8.747 0 .88-.797 1.363-2.391 1.363-1.949 0-3.189-.923-3.764-2.594l-5.758 3.253C117.734 30.33 121.1 32 125.528 32zm15.522 0c2.303 0 4.207-1.89 4.207-4.176 0-2.286-1.904-4.176-4.207-4.176s-4.207 1.89-4.207 4.176c0 2.286 1.904 4.176 4.207 4.176zm13.396-.615l1.55-4.836h11.515l1.55 4.836h7.75L166.27.615h-9.035l-10.54 30.77h7.75zm10.939-11.429h-7.263l3.632-11.297 3.631 11.297zM186 31.385V.615h-7.086v30.77H186z" transform="translate(-735 -1235) translate(735 1235)"/>
        </g>
    </g>
</svg>
