<svg xmlns="http://www.w3.org/2000/svg" width="185" height="55" viewBox="0 0 185 55">
    <g fill="none" fill-rule="evenodd">
        <g fill="#FFF" fill-rule="nonzero">
            <g>
                <path d="M78.42 15.934c1.427 1.15 2.278 2.862 2.348 4.683v.458c.073 2.389-1.194 4.617-3.278 5.769v.078c1.365.39 2.54 1.27 3.304 2.471.72 1.16 1.094 2.502 1.077 3.869.091 2.318-.953 4.534-2.795 5.932-1.922 1.317-4.215 1.978-6.54 1.887h-9.792V14.127h9.676c2.146-.095 4.26.542 6 1.807zm-29.28-1.807l9.517 26.951H53.6l-2.282-6.908h-9.492l-2.281 6.908-5.073.003 9.526-26.954h5.143zm52.903.759c2.704 1.247 4.422 3.956 4.43 6.919l-.013.446c.011 1.572-.409 3.116-1.214 4.464-.772 1.31-1.951 2.33-3.356 2.9v.077c.355.405.662.852.913 1.33l5.56 10.056h-5.476L97.51 31.021h-4.725v10.06h-4.915V14.127h8.725c1.85-.145 3.708.114 5.449.759zm16.159-.76v26.955h-4.915V14.127h4.915zm26.745 0v4.215h-8.878v22.74h-4.914V18.34h-8.878v-4.214h22.67zm2.494 0h5.563l4.23 7.935c.457.873 1.657 3.258 1.657 3.258l1.695-3.258 4.196-7.934h5.563l-8.997 15.68V41.08h-4.915V29.806l-8.992-15.68zm-113.262 0v4.215H22.21v7.629h10.286v4.208H22.21v10.896h-4.915V14.127h16.884zm38.725 14.958h-5.246v7.782h5.248c1.078.05 2.129-.347 2.905-1.1.606-.67.962-1.527 1.014-2.423l.003-.386c.062-1.058-.334-2.09-1.086-2.833-.752-.742-1.787-1.121-2.838-1.04zM46.628 18.795h-.077l-.296 1.227c-.202.8-.48 1.843-.746 2.656l-2.502 7.5h7.085l-2.398-7.207-.187-.611c-.44-1.516-.875-3.543-.879-3.565zm49.889-.456h-3.733v8.429h4.42c1.155.113 2.301-.297 3.126-1.119.733-.73 1.145-1.718 1.155-2.746l-.015-.386c0-2.928-1.48-4.178-4.953-4.178zm-24.165.002l-4.694-.002v6.794h4.762c.916.042 1.806-.31 2.447-.97.64-.659.97-1.562.907-2.48.071-.925-.27-1.832-.932-2.478-.661-.645-1.574-.962-2.49-.864z" transform="translate(-996 -1223) translate(996 1223)"/>
                <path d="M184.983 55.122H0V0h184.983v55.122zM4.762 4.744v45.631h175.46V4.745H4.762z" transform="translate(-996 -1223) translate(996 1223)"/>
            </g>
        </g>
    </g>
</svg>
