<svg xmlns="http://www.w3.org/2000/svg" width="242" height="31" viewBox="0 0 242 31">
    <g fill="none" fill-rule="evenodd">
        <g fill="#FFF" fill-rule="nonzero">
            <g>
                <path d="M60.523 29.867c-.024-.034-.05-.066-.08-.102L46.308 15.199l13.6-14.01c.023-.025.037-.046.056-.069-.004-.001-.004-.005-.007-.011.084-.089.135-.204.135-.33 0-.266-.209-.474-.47-.489V.286h-4.505c-.429.004-.815.176-1.105.445L54.011.73 41.902 13.223V1.14C41.89.375 41.621.286 40.89.286h-2.472c-.664 0-1.016.087-1.016.912V29.8c0 .824.352.911 1.016.911h2.472c.73 0 .999-.09 1.012-.853V17.183l12.61 13.01.003-.002c.292.313.708.513 1.177.521h4.512c0-.006.007-.006 0-.008.265-.016.47-.226.47-.482 0-.144-.057-.266-.151-.355M88.545 3.499V1.063c0-.52-.044-.777-.708-.777H66.073c-.662 0-.706.257-.706.777v2.436c0 .524.044.74.706.74h8.563V29.8c0 .824.357.911 1.018.911h2.514c.752 0 1.017-.087 1.017-.911V4.239h8.652c.664 0 .708-.216.708-.74M108.534 2.023c-.487-1.261-.886-1.737-2.162-1.782h-2.166c-1.367 0-1.986.346-2.517 1.782l-9.932 28.082c-.133.388 0 .607.4.607h2.967c.445 0 .706-.173.838-.566l6.877-18.864 2.164-6.39h.265l1.985 6.345 7.01 18.91c.223.565.488.565.974.565h2.92c.399 0 .487-.22.353-.607l-9.976-28.082zM176.013 4.892L178 11.237l7.014 18.909c.217.566.481.566.969.566h2.92c.396 0 .484-.219.354-.607l-9.976-28.082c-.485-1.261-.885-1.737-2.166-1.782h-2.164c-1.366 0-1.985.346-2.513 1.782l-9.936 28.082c-.13.388 0 .607.398.607h2.97c.441 0 .707-.173.842-.566l6.873-18.864 2.163-6.39h.265zM206.14 28.93L216.118.85c.13-.393.043-.608-.356-.608h-2.917c-.488 0-.75 0-.97.568l-7.014 18.905-1.987 6.346h-.264l-2.163-6.39L193.57.81c-.132-.394-.399-.568-.84-.568h-2.97c-.398 0-.526.215-.398.608L199.3 28.93c.525 1.435 1.147 1.782 2.511 1.782h2.166c1.283-.046 1.682-.521 2.165-1.782M17.21.012c-.17-.024-.514-.056-.514.393V4.06c0 .46.23.472.346.5 4.855 1.091 8.49 5.568 8.49 10.938 0 5.215-3.434 9.59-8.079 10.835-.249.071-.757.104-.757.785v3.317c0 .725.45.56.677.52 7.164-1.283 12.62-7.71 12.62-15.457 0-7.806-5.534-14.276-12.783-15.487M12.782.012C5.534 1.223 0 7.692 0 15.5c0 7.746 5.453 14.174 12.622 15.457.225.04.68.205.68-.52v-3.317c0-.68-.512-.714-.762-.785-4.645-1.245-8.08-5.62-8.08-10.835 0-5.37 3.637-9.847 8.49-10.937.115-.029.351-.04.351-.501V.405c0-.45-.345-.417-.52-.393M241.212 3.325V1.241c0-.654-.09-1-.93-1h-12.094c-5.522 0-7.681 3.65-7.681 7.696v15.125c0 4.045 1.675 7.65 7.681 7.65h12.017c.838 0 .927-.347.927-.999v-2.089c0-.738-.09-.997-.927-.997h-12.017c-2.253 0-3.138-1.215-3.138-2.957V7.281c0-2.087.885-2.998 3.138-2.998h12.095c.838 0 .93-.216.93-.958M161.443.24h-3.23c-.485 0-.75.175-.838.567l-8.645 24.605h-.267l-1.41-6.914-3.4-16.082C143.432 1.24 142.857.24 141.05.24H139.41c-1.812 0-2.387 1-2.605 2.175l-3.4 16.082-1.413 6.914h-.263L123.084.807c-.089-.392-.355-.566-.84-.566h-3.23c-.395 0-.53.215-.395.608l9.798 28.082c.309 1.52 1.15 1.781 2.518 1.781h2.164c1.277 0 1.809-.782 2.116-2.129l3.53-16.304 1.417-6.953h.137l1.412 6.953 3.53 16.304c.312 1.347.843 2.13 2.117 2.13h2.167c1.37 0 2.21-.262 2.516-1.782l9.8-28.082c.133-.393 0-.608-.398-.608" transform="translate(-1536 -1235) translate(1536 1235)"/>
                <path d="M233.312 13.497h-4.499c-.84 0-.928.35-.928.999v2.087c0 .739.088.954.928.954h8.33c.838 0 .93-.215.93-.954v-2.087c0-.65-.092-1-.93-1h-3.831z" transform="translate(-1536 -1235) translate(1536 1235)"/>
            </g>
        </g>
    </g>
</svg>
