<svg xmlns="http://www.w3.org/2000/svg" width="218" height="41" viewBox="0 0 218 41">
    <g fill="none" fill-rule="evenodd">
        <g fill="#000">
            <g>
                <path d="M191.049 9.74v21.743c0 6.784-3.118 9.697-9.961 9.306v-6.262c2.382.13 3.464-.74 3.464-3.044V9.741h6.497zm-95.016-.608c2.815 0 4.894 1.043 6.324 2.826V9.741h6.323v20.655c0 7.305-5.674 10.393-11.434 10.393-4.504 0-8.272-1.696-10.264-5.262l5.543-3.218c.823 1.522 2.08 2.74 4.938 2.74 3.031 0 4.894-1.566 4.894-4.653v-2c-1.43 1.782-3.509 2.826-6.324 2.826-6.15 0-10.654-5.044-10.654-11.045 0-6 4.504-11.045 10.654-11.045zm27.23 0c6.323 0 11 4.914 11 11.48 0 .913-.086 1.783-.26 2.609H118.63c.823 2.261 2.815 3.044 5.197 3.044 1.776 0 3.291-.696 4.158-1.653l5.197 3c-2.122 2.958-5.327 4.48-9.442 4.48-7.406 0-11.997-5-11.997-11.48s4.678-11.48 11.52-11.48zm49.088 0c4.201 0 7.926 2.218 9.788 5.566l-5.673 3.305c-.736-1.522-2.296-2.435-4.201-2.435-2.815 0-4.894 2.043-4.894 5.044 0 3 2.079 5.044 4.894 5.044 1.905 0 3.508-.913 4.2-2.435l5.674 3.261c-1.862 3.392-5.543 5.61-9.788 5.61-6.583 0-11.477-5-11.477-11.48s4.894-11.48 11.477-11.48zm32.112 0c2.901 0 5.024 1 6.453 2.652V9.741h6.496v21.742h-6.496v-2.044c-1.43 1.653-3.552 2.653-6.453 2.653-5.674 0-10.351-5-10.351-11.48s4.677-11.48 10.35-11.48zM24.843 6.833v24.849H0V6.833h24.843zm50.197-5.79l10.308 30.44h-7.58L76.254 26.7h-11.26l-1.516 4.783h-7.58l10.308-30.44h8.835zm74.976 8.089c4.374 0 8.099 3.13 8.099 9.001v13.35h-6.497V19.09c0-2.696-1.689-3.957-3.768-3.957-2.382 0-4.027 1.391-4.027 4.479v11.871h-6.497V9.741h6.497v2.043c1.169-1.609 3.334-2.652 6.193-2.652zm55.746 6.175c-2.989 0-5.154 2.043-5.154 5.305 0 3.261 2.165 5.305 5.154 5.305 2.988 0 5.154-2.044 5.154-5.305 0-3.262-2.166-5.305-5.154-5.305zm-108.646-.174c-3.075 0-5.24 2.044-5.24 5.044 0 3 2.165 5.044 5.24 5.044s5.24-2.044 5.24-5.044c0-3-2.165-5.044-5.24-5.044zm-60.463-.49c3.547.042 4.344 3.937 1.786 6.18l-1.618 1.634h3.278v2.149h-6.64v-1.619l3.278-3.404c.573-.587.99-1.159.99-1.731-.028-1.536-2.124-1.19-2.482.028l-1.884-1.102c.627-1.451 1.94-2.135 3.292-2.135zm-25.219 0H9.228v9.94h2.206V19.98l3.09 4.601h2.511l-3.393-5.097 3.255-4.842h-2.51l-2.953 4.316v-4.316zM70.623 9L67.07 20.177h7.103L70.623 9.001zm52.596 5.914c-2.468 0-4.114 1.218-4.72 3.436h9.311c-.693-2.523-2.642-3.436-4.59-3.436zM187.801 0c2.122 0 3.898 1.783 3.898 3.914 0 2.13-1.776 3.913-3.898 3.913-2.123 0-3.898-1.783-3.898-3.913 0-2.131 1.775-3.914 3.898-3.914z" transform="translate(-20 -1732) translate(20 1732)"/>
            </g>
        </g>
    </g>
</svg>
