<svg xmlns="http://www.w3.org/2000/svg" width="200" height="35" viewBox="0 0 200 35">
    <g fill="none" fill-rule="evenodd">
        <g fill="#000">
            <path d="M7.619 34.327V18.75l10.667 15.577h8.666l-11.714-17.26L26.476.673H17.81L7.619 15.288V.673H0v33.654h7.619zm42.452 0v-7.404h-11.19l5.524-5.625c3.047-3.077 5.19-6.538 5.19-10.577C49.595 3.942 44.262 0 38.31 0c-4.62 0-9.096 2.356-11.239 7.356l6.429 3.798c.905-2.116 2.571-3.654 4.905-3.654 2.238 0 3.571 1.442 3.571 3.558 0 1.97-1.428 3.942-3.38 5.961L27.404 28.75v5.577H50.07zm17.929 0c5.952 0 10.762-3.894 10.762-9.856 0-3.413-1.62-6.01-4.095-7.596 1.81-1.587 2.904-3.798 2.904-6.587 0-5.817-4.714-9.615-10.523-9.615H54v33.654h14zm-.952-20.48h-5.429V7.884h5.429c1.762 0 2.904 1.25 2.904 2.98 0 1.731-1.19 2.981-2.904 2.981zM68 27.114h-6.381v-6.442H68c1.905 0 3.143 1.346 3.143 3.221S69.905 27.115 68 27.115zM93.643 35c7 0 12.619-5.529 12.619-12.692 0-7.164-5.62-12.693-12.62-12.693-7 0-12.618 5.53-12.618 12.693C81.024 29.47 86.643 35 93.643 35zm0-7.02c-3.095 0-5.476-2.259-5.476-5.672 0-3.414 2.38-5.673 5.476-5.673 3.095 0 5.476 2.26 5.476 5.673 0 3.413-2.38 5.673-5.476 5.673zm29.547 6.347v-6.539c-3.142.193-4.904 0-4.904-2.067v-8.51h4.904v-6.923h-4.904v-6.73l-7.143 2.163v4.567h-3.81v6.924h3.81v8.51c0 6.73 2.714 9.566 12.047 8.605zm11.786.673c5.143 0 9.905-2.356 9.905-7.885 0-8.894-11.714-7.067-11.714-9.807 0-.866.762-1.346 2-1.346 1.571 0 2.523.865 3.19 2.115l6.095-3.317c-2-3.414-5.428-5.145-9.285-5.145-4.953 0-9.334 2.645-9.334 7.885 0 8.317 11.715 6.923 11.715 9.567 0 .962-.858 1.49-2.572 1.49-2.095 0-3.428-1.009-4.047-2.836l-6.19 3.558c1.856 3.894 5.475 5.721 10.237 5.721zm16.69 0c2.477 0 4.524-2.067 4.524-4.567s-2.047-4.568-4.523-4.568c-2.477 0-4.524 2.068-4.524 4.568 0 2.5 2.047 4.567 4.524 4.567zm14.405-.673l1.667-5.289h12.381l1.667 5.289h8.333L178.786.673h-9.715l-11.333 33.654h8.333zm11.762-12.5h-7.81L173.93 9.47l3.904 12.356zM200 34.327V.673h-7.619v33.654H200z" transform="translate(-20 -2612) translate(20 2612)"/>
        </g>
    </g>
</svg>
