<svg xmlns="http://www.w3.org/2000/svg" width="180" height="71" viewBox="0 0 180 71">
    <g fill="none" fill-rule="evenodd">
        <g fill="#000">
            <g>
                <path fill-rule="nonzero" d="M8.496 26.677c2.382 0 4.124-.811 5.297-2.15v1.656h5.332V3.525h-5.332v6.691c-1.173-1.339-2.915-2.15-5.297-2.15C3.839 8.066 0 12.12 0 17.372c0 5.251 3.84 9.305 8.496 9.305zM20.516 0h5.333v5.287h-5.333V0zm26.306 0h5.332v5.287h-5.332V0zM9.562 21.672c-2.452 0-4.23-1.657-4.23-4.3 0-2.644 1.778-4.3 4.23-4.3 2.453 0 4.23 1.656 4.23 4.3 0 2.643-1.777 4.3-4.23 4.3zm16.266 4.511V8.56h-5.332v17.623h5.332zm10.223 7.543c4.728 0 9.385-2.502 9.385-8.424V8.56h-5.19v1.797c-1.173-1.445-2.88-2.29-5.19-2.29-5.048 0-8.745 4.088-8.745 8.952s3.697 8.953 8.745 8.953c2.31 0 4.017-.846 5.19-2.291v1.621c0 2.503-1.529 3.771-4.017 3.771-2.347 0-3.377-.986-4.053-2.22l-4.55 2.608c1.635 2.89 4.728 4.265 8.425 4.265zm-.107-12.618c-2.524 0-4.301-1.657-4.301-4.089 0-2.432 1.777-4.089 4.301-4.089s4.302 1.657 4.302 4.09c0 2.431-1.778 4.088-4.302 4.088zm16.195 5.075V8.56h-5.332v17.623h5.332zm11.787 0V21.39c-2.346.14-3.662 0-3.662-1.516v-6.239h3.662V8.56h-3.662V3.625l-5.332 1.586V8.56h-2.844v5.075h2.844v6.24c0 4.934 2.026 7.013 8.994 6.308zm7.734.494c2.382 0 4.124-.811 5.297-2.15v1.656h5.332V8.56h-5.332v1.656c-1.173-1.339-2.915-2.15-5.297-2.15-4.657 0-8.496 4.054-8.496 9.306 0 5.251 3.84 9.305 8.496 9.305zm1.066-5.005c-2.452 0-4.23-1.657-4.23-4.3 0-2.644 1.778-4.3 4.23-4.3 2.453 0 4.23 1.656 4.23 4.3 0 2.643-1.777 4.3-4.23 4.3zm16.266 4.511V2.467H83.66v23.716h5.332zM6.221 61.933v-8.705c1.173 1.339 2.915 2.15 5.297 2.15 4.656 0 8.496-4.054 8.496-9.306 0-5.251-3.84-9.305-8.496-9.305-2.382 0-4.124.811-5.297 2.15v-1.656H.889v24.672H6.22zm4.23-11.56c-2.453 0-4.23-1.657-4.23-4.3 0-2.644 1.777-4.3 4.23-4.3 2.453 0 4.23 1.656 4.23 4.3 0 2.643-1.777 4.3-4.23 4.3zm15.377 4.511v-7.966c0-3.49 3.129-4.37 5.333-4.018v-5.992c-2.24 0-4.622 1.128-5.333 3.49V37.26h-5.332v17.623h5.332zm13.28.494c5.226 0 9.42-4.054 9.42-9.306 0-5.251-4.194-9.305-9.42-9.305s-9.42 4.054-9.42 9.305c0 5.252 4.194 9.306 9.42 9.306zm0-5.146c-2.31 0-4.088-1.657-4.088-4.16 0-2.502 1.777-4.159 4.088-4.159 2.31 0 4.088 1.657 4.088 4.16 0 2.502-1.777 4.159-4.088 4.159zm17.51 5.146c2.382 0 4.124-.811 5.297-2.15v1.656h5.332V32.226h-5.332v6.691c-1.173-1.339-2.915-2.15-5.297-2.15-4.657 0-8.496 4.054-8.496 9.305 0 5.252 3.84 9.306 8.496 9.306zm1.067-5.005c-2.453 0-4.23-1.657-4.23-4.3 0-2.644 1.777-4.3 4.23-4.3 2.452 0 4.23 1.656 4.23 4.3 0 2.643-1.778 4.3-4.23 4.3zm17.332 5.005c2.346 0 4.123-.846 5.083-2.15v1.656h5.332V37.261H80.1v9.622c0 2.503-1.35 3.63-3.306 3.63-1.706 0-3.092-1.022-3.092-3.207V37.261h-5.333v10.82c0 4.759 3.057 7.297 6.648 7.297zm20.318 0c3.484 0 6.505-1.798 8.034-4.547l-4.657-2.644c-.569 1.234-1.884 1.974-3.448 1.974-2.31 0-4.017-1.657-4.017-4.089 0-2.432 1.706-4.088 4.017-4.088 1.564 0 2.844.74 3.448 1.974l4.657-2.68c-1.529-2.713-4.586-4.51-8.034-4.51-5.403 0-9.42 4.053-9.42 9.304 0 5.252 4.017 9.306 9.42 9.306zm18.043-.494v-4.793c-2.346.14-3.661 0-3.661-1.516v-6.239h3.661v-5.075h-3.661v-4.935l-5.332 1.586v3.349h-2.844v5.075h2.844v6.239c0 4.934 2.026 7.014 8.993 6.31zm6.704.494c3.839 0 7.394-1.728 7.394-5.78 0-6.522-8.745-5.182-8.745-7.191 0-.635.569-.987 1.493-.987 1.173 0 1.884.634 2.382 1.55l4.55-2.431c-1.493-2.503-4.053-3.772-6.932-3.772-3.697 0-6.968 1.939-6.968 5.78 0 6.098 8.745 5.076 8.745 7.015 0 .705-.64 1.093-1.92 1.093-1.563 0-2.559-.74-3.02-2.08l-4.622 2.608c1.386 2.855 4.088 4.195 7.643 4.195z" transform="translate(-20 -4471) translate(20 4471) translate(52.027 .764)"/>
                <path d="M22.23 20.416v22.63H0v-22.63h22.23zm10.567 7.112c3.174.038 3.887 3.585 1.598 5.63l-1.448 1.486h2.933v1.957H29.94v-1.474l2.933-3.1c.512-.534.886-1.055.886-1.576-.026-1.4-1.9-1.084-2.221.025l-1.686-1.004c.562-1.321 1.735-1.944 2.946-1.944zm-22.566 0H8.257v9.052h1.974v-4.19l2.766 4.19h2.246l-3.036-4.642 2.912-4.41h-2.246l-2.642 3.93v-3.93z" transform="translate(-20 -4471) translate(20 4471)"/>
            </g>
        </g>
    </g>
</svg>
