<svg xmlns="http://www.w3.org/2000/svg" width="159" height="34" viewBox="0 0 159 34">
    <g fill="none" fill-rule="evenodd">
        <g>
            <g>
                <path fill="#FFF" fill-rule="nonzero" d="M97.017 22.97L158.38 0 158.38 22.97z" opacity=".3" transform="translate(-20 -925) translate(20 925)"/>
                <path fill="#000" d="M127.685 2.557l.645.006.309.008.59.027c4 .241 5.355 1.628 5.355 6.392v3.984h-4.339V8.636c0-1.922-.714-2.276-1.88-2.34l-.33-.01h-1.595l-.324.01c-1.151.064-1.894.418-1.894 2.34v2.978c0 1.82.566 2.394 1.852 2.957l.407.17.948.369 2.991 1.047.677.265.43.186.2.094.389.199c1.574.863 2.63 2.19 2.63 5.253v4.856l-.003.332-.019.63c-.174 3.657-1.424 4.992-4.519 5.356l-.533.052-.568.036c-.195.009-.396.016-.603.02l-.64.006h-1.079l-.645-.006c-.209-.004-.411-.011-.608-.02l-.571-.036-.536-.052c-3.283-.385-4.477-1.85-4.536-5.986l-.003-4.412h4.34v4.338c0 2.01.78 2.337 2.041 2.386l.518.008 1.252-.001.333-.007c1.242-.05 2.053-.377 2.053-2.386v-4.515c0-1.45-.485-1.995-1.331-2.43l-.334-.16-1.191-.511-3.167-1.088-.673-.274-.43-.186-.415-.195c-1.758-.868-2.996-2.09-2.996-5.261V8.99c0-4.764 1.388-6.15 5.366-6.392l.586-.027.307-.008.64-.006h.903zm-26.504 0l.645.006.308.008.59.027c3.426.207 4.904 1.255 5.256 4.55l.048.57c.02.296.031.608.036.937l.002.335v3.984h-4.339V8.731c0-1.922-.714-2.344-1.872-2.428l-.327-.016-.347-.004-1.52.001-.168.003-.322.016c-1.093.08-1.829.469-1.893 2.175l-.005.253v18.483c0 1.933.752 2.347 1.898 2.429l.322.015.34.004h1.348c.119 0 .235-.001.347-.004l.327-.015c1.106-.078 1.806-.46 1.868-2.175l.004-.254V22.93h4.34v4.08c0 .45-.013.87-.039 1.262l-.048.567c-.323 3.005-1.592 4.155-4.44 4.49l-.536.051-.57.036c-.197.009-.4.016-.608.02l-.645.006h-1.348l-.64-.006c-.207-.004-.409-.011-.604-.02l-.568-.036-.533-.052c-3.095-.364-4.345-1.7-4.519-5.355l-.019-.631V8.655l.02-.635c.188-3.987 1.639-5.198 5.33-5.422l.586-.027.307-.008.64-.006h1.348zm-33.795.177l.638.006c.206.004.405.011.598.02l.56.036c3.515.285 4.659 1.638 4.659 5.88v5.169c0 3.631-1.348 4.542-2.695 4.76 1.778.394 2.695 1.577 2.695 5.168v9.52H69.5v-10.16c0-1.93-.956-2.407-2.209-2.447h-3.773V33.36h-4.325V2.734h8.192zm-17.813 0l.944.016.58.03.542.046c3.312.352 4.388 1.797 4.388 5.85v8.31c0 4.255-1.133 5.61-4.655 5.895l-.56.035c-.194.01-.393.016-.6.02l-.639.007h-3.638v10.404h-4.339V2.734h7.977zm66.497 0v30.613h-4.325V2.734h4.325zm-26.154 0v3.712h-8.287v9.37h7.627v3.714h-7.627v10.064h8.287v3.712H77.304V2.734h12.612zm61.255 0v3.712h-8.273v9.37h7.626v3.714h-7.626v10.064h8.273v3.712H138.56V2.734h12.612zm-133.748 6.5v17.53H0V9.235h17.423zm10.049 5.85c.441.419.691 1.005.69 1.617-.054.842-.443 1.627-1.078 2.176l-1.145 1.156h2.317v1.537h-4.675l.026-1.156 2.305-2.421c.378-.304.628-.741.7-1.224.013-.201-.062-.397-.204-.538-.142-.141-.338-.213-.537-.197-.458.014-.86.312-1.01.748l-1.348-.775c.385-.943 1.307-1.55 2.318-1.523.605-.038 1.2.18 1.64.6zm-19.71-.546H6.184v6.936H7.76v-3.21l2.197 3.21h1.792l-2.412-3.563 2.318-3.373H9.863l-2.102 3.006v-3.006zm38.173-8.092v12.77h3.62l.305-.008.292-.022c.9-.097 1.55-.485 1.55-1.982V8.459c0-1.632-.785-1.948-1.822-2.002l-.318-.01h-3.627zm21.317 0h-3.733v10.5l4.029-.001.308-.01c.994-.054 1.646-.37 1.646-2.002V8.378c0-1.486-.625-1.83-1.507-1.909l-.287-.017-.456-.006z" transform="translate(-20 -925) translate(20 925)"/>
            </g>
        </g>
    </g>
</svg>
