<svg xmlns="http://www.w3.org/2000/svg" width="168" height="50" viewBox="0 0 168 50">
    <g fill="none" fill-rule="evenodd">
        <g fill="#000">
            <g>
                <path d="M71.215 14.485c1.295 1.046 2.068 2.602 2.13 4.258l.002.416c.065 2.172-1.085 4.198-2.978 5.244v.071c1.24.355 2.307 1.154 3 2.247.655 1.054.994 2.275.979 3.517.083 2.107-.866 4.122-2.539 5.392-1.745 1.198-3.827 1.8-5.938 1.716h-8.893V12.843h8.787c1.949-.087 3.87.492 5.45 1.642zm-26.59-1.642l8.642 24.5h-4.594l-2.072-6.28h-8.62l-2.071 6.28-4.606.003 8.65-24.503h4.67zm48.041.69c2.455 1.133 4.016 3.596 4.022 6.29l-.01.405c.01 1.429-.372 2.833-1.103 4.059-.702 1.19-1.772 2.117-3.048 2.636v.07c.323.368.6.774.829 1.208l5.05 9.143h-4.973L88.549 28.2h-4.291v9.145h-4.463V12.843h7.923c1.68-.132 3.367.104 4.948.69zm14.674-.69v24.503h-4.463V12.843h4.463zm24.288 0v3.831h-8.062v20.672h-4.463V16.674h-8.062v-3.831h20.587zm2.265 0h5.051l3.842 7.212c.414.794 1.504 2.962 1.504 2.962l1.54-2.962 3.81-7.212h5.051l-8.17 14.254v10.249h-4.463v-10.25l-8.165-14.253zm-102.854 0v3.831h-10.87v6.935h9.34v3.825h-9.34v9.906h-4.463V12.843h15.333zM66.205 26.44H61.44v7.075h4.766c.978.046 1.933-.316 2.637-1 .551-.61.874-1.388.921-2.203l.003-.351c.056-.962-.303-1.9-.986-2.575-.683-.675-1.623-1.02-2.577-.946zm-23.862-9.353h-.07l-.268 1.115c-.184.728-.437 1.676-.678 2.414l-2.272 6.818h6.434l-2.178-6.551-.17-.556c-.399-1.378-.794-3.22-.798-3.24zm45.305-.415h-3.39v7.663h4.013c1.05.102 2.09-.27 2.84-1.018.665-.664 1.04-1.562 1.049-2.496l-.014-.351c0-2.662-1.345-3.798-4.498-3.798zm-21.945.002l-4.262-.002v6.176h4.324c.832.039 1.64-.282 2.222-.881.582-.6.882-1.42.824-2.256.065-.84-.246-1.665-.846-2.252-.6-.586-1.43-.874-2.262-.785z" transform="translate(-20 -3560) translate(20 3560)"/>
                <path d="M167.985 50.11H0V0h167.985v50.11zM4.325 4.313v41.483H163.66V4.313H4.324z" transform="translate(-20 -3560) translate(20 3560)"/>
            </g>
        </g>
    </g>
</svg>
