<svg xmlns="http://www.w3.org/2000/svg" width="228" height="30" viewBox="0 0 228 30">
    <defs>
        <filter id="p2v6yd8r8a">
            <feColorMatrix in="SourceGraphic" values="0 0 0 0 0.000000 0 0 0 0 0.000000 0 0 0 0 0.000000 0 0 0 1.000000 0"/>
        </filter>
    </defs>
    <g fill="none" fill-rule="evenodd">
        <g>
            <g filter="url(#p2v6yd8r8a)" transform="translate(-20 -5418) translate(20 5418)">
                <g fill="#FFF" fill-rule="nonzero">
                    <path d="M57.021 28.903c-.022-.032-.046-.064-.075-.098L43.63 14.709 56.444 1.15c.021-.024.034-.044.052-.066-.003-.001-.003-.005-.007-.011.08-.086.128-.197.128-.319 0-.258-.197-.459-.443-.473V.277h-4.245c-.403.004-.767.17-1.04.43h-.003l-11.408 12.09V1.102c-.013-.74-.265-.826-.954-.826h-2.329c-.625 0-.957.084-.957.882v27.68c0 .798.332.882.957.882h2.33c.688 0 .94-.087.953-.825V16.629l11.88 12.59.003-.002c.275.303.667.497 1.11.504h4.25c0-.006.006-.006 0-.007.25-.016.443-.22.443-.467 0-.14-.053-.258-.143-.344M83.423 3.386V1.029c0-.504-.042-.753-.668-.753H62.251c-.624 0-.666.25-.666.753v2.357c0 .508.042.716.666.716h8.067V28.84c0 .798.337.882.96.882h2.368c.709 0 .958-.084.958-.882V4.102h8.151c.626 0 .668-.208.668-.716M102.255 1.957c-.459-1.22-.834-1.68-2.037-1.724h-2.04c-1.288 0-1.871.335-2.372 1.724l-9.357 27.177c-.125.375 0 .588.376.588h2.796c.419 0 .666-.168.79-.548l6.479-18.256 2.038-6.184h.25l1.87 6.14 6.605 18.3c.21.548.46.548.917.548h2.751c.376 0 .46-.213.333-.588l-9.399-27.177zM165.83 4.734l1.872 6.14 6.609 18.3c.205.548.453.548.912.548h2.752c.373 0 .456-.213.333-.588L168.91 1.957c-.457-1.22-.833-1.68-2.04-1.724h-2.039c-1.287 0-1.87.335-2.367 1.724L153.1 29.134c-.122.375 0 .588.375.588h2.799c.415 0 .665-.168.792-.549l6.476-18.255 2.038-6.184h.25zM194.215 27.997l9.4-27.175c.122-.38.04-.59-.336-.59h-2.749c-.459 0-.707 0-.914.55l-6.607 18.296-1.872 6.141h-.249l-2.038-6.183L182.373.783c-.125-.381-.376-.55-.791-.55h-2.8c-.374 0-.495.208-.374.589l9.361 27.175c.495 1.388 1.08 1.724 2.366 1.724h2.041c1.208-.044 1.584-.504 2.04-1.724M16.214.012c-.159-.024-.484-.055-.484.38V3.93c0 .445.217.457.327.485 4.573 1.055 7.998 5.388 7.998 10.584 0 5.047-3.236 9.28-7.612 10.486-.234.068-.713.1-.713.759v3.21c0 .702.424.541.638.503 6.75-1.241 11.89-7.462 11.89-14.958 0-7.554-5.214-13.816-12.044-14.987M12.042.012C5.214 1.183 0 7.445 0 14.999c0 7.496 5.138 13.717 11.892 14.958.212.038.64.199.64-.503v-3.21c0-.659-.482-.69-.717-.759-4.377-1.205-7.612-5.439-7.612-10.486 0-5.196 3.426-9.53 7.998-10.584.109-.028.33-.04.33-.485V.392c0-.435-.325-.404-.489-.38M227.258 3.218V1.201c0-.633-.086-.968-.876-.968h-11.395c-5.203 0-7.237 3.532-7.237 7.448v14.637c0 3.915 1.579 7.404 7.237 7.404h11.322c.789 0 .874-.336.874-.967v-2.022c0-.714-.085-.965-.874-.965h-11.322c-2.122 0-2.956-1.176-2.956-2.862V7.046c0-2.02.834-2.9 2.956-2.9h11.395c.79 0 .876-.21.876-.928M152.103.233h-3.043c-.457 0-.706.168-.79.548l-8.144 23.811h-.252l-1.328-6.69-3.203-15.564c-.21-1.137-.752-2.105-2.453-2.105h-1.544c-1.707 0-2.249.968-2.455 2.105l-3.203 15.564-1.33 6.69h-.249L115.963.781c-.083-.38-.334-.548-.79-.548h-3.044c-.372 0-.5.209-.372.588l9.23 27.176c.292 1.472 1.084 1.725 2.373 1.725h2.039c1.203 0 1.704-.757 1.994-2.06l3.326-15.78 1.335-6.728h.128l1.331 6.729 3.327 15.778c.292 1.304.793 2.06 1.994 2.06h2.041c1.29 0 2.083-.252 2.37-1.724L152.479.821c.124-.38 0-.588-.376-.588"/>
                    <path d="M219.814 13.061h-4.238c-.791 0-.874.338-.874.967v2.02c0 .715.083.924.874.924H223.424c.79 0 .877-.209.877-.924v-2.02c0-.629-.087-.967-.877-.967h-3.61z"/>
                </g>
            </g>
        </g>
    </g>
</svg>
